<svg width="178" height="100" viewBox="0 0 178 100" fill="none" xmlns="http://www.w3.org/2000/svg">
<g filter="url(#filter0_dd)">
<rect x="4.5" y="0.5" width="169" height="91" rx="3.5" stroke="#AFB1B8"/>
<path fill-rule="evenodd" clip-rule="evenodd" d="M74 23L81.0078 29.6341L68 29.6265V61.8137H102V49.507L109 56.1338V23H74ZM101.692 48.7283L81.8226 29.918H101.692V48.7283ZM95.5231 57.1055H73.3801V35.4579H74.9453V55.6397H95.5231V57.1055ZM78.6089 66.0991L77.791 67.7837L76.9731 66.0991H76.2871L77.481 68.3452V69.6538H78.1011V68.3452L79.2925 66.0991H78.6089ZM79.6367 69.6538L79.9248 68.8262H81.3018L81.5923 69.6538H82.2368L80.8916 66.0991H80.3374L78.9946 69.6538H79.6367ZM80.6133 66.8535L81.1284 68.3281H80.0981L80.6133 66.8535ZM83.8701 68.2427C83.7806 68.3794 83.7358 68.5299 83.7358 68.6943C83.7358 68.9938 83.8408 69.2371 84.0508 69.4243C84.2624 69.6099 84.5439 69.7026 84.8955 69.7026C85.2471 69.7026 85.5498 69.6074 85.8037 69.417L86.0039 69.6538H86.6924L86.1699 69.0361C86.375 68.7562 86.4775 68.3973 86.4775 67.9595H85.9624C85.9624 68.1987 85.9128 68.416 85.8135 68.6113L85.1274 67.8008L85.3691 67.625C85.54 67.5013 85.6629 67.3776 85.7378 67.2539C85.8127 67.1286 85.8501 66.9919 85.8501 66.8438C85.8501 66.6191 85.7671 66.4312 85.6011 66.2798C85.4367 66.1268 85.2251 66.0503 84.9663 66.0503C84.6798 66.0503 84.452 66.1317 84.2827 66.2944C84.1134 66.4556 84.0288 66.6753 84.0288 66.9536C84.0288 67.0675 84.0557 67.1855 84.1094 67.3076C84.1647 67.4297 84.2616 67.5778 84.3999 67.752C84.1362 67.9408 83.9596 68.1043 83.8701 68.2427ZM85.4741 69.0288C85.3 69.1623 85.1128 69.229 84.9126 69.229C84.7352 69.229 84.5936 69.1777 84.4878 69.0752C84.382 68.9727 84.3291 68.8392 84.3291 68.6748C84.3291 68.4844 84.4268 68.3151 84.6221 68.167L84.6978 68.1133L85.4741 69.0288ZM84.8369 67.4541C84.6693 67.2474 84.5854 67.0757 84.5854 66.939C84.5854 66.8201 84.6196 66.7217 84.688 66.6436C84.7563 66.5654 84.8483 66.5264 84.9639 66.5264C85.0713 66.5264 85.16 66.5597 85.23 66.6265C85.3 66.6916 85.335 66.7705 85.335 66.8633C85.335 67.0033 85.2845 67.118 85.1836 67.2075L85.1079 67.2686L84.8369 67.4541ZM90.623 69.3853C90.8672 69.172 91.0072 68.8758 91.043 68.4966H90.4277C90.3952 68.7505 90.3179 68.932 90.1958 69.041C90.0737 69.1501 89.8914 69.2046 89.6489 69.2046C89.3836 69.2046 89.1818 69.1037 89.0435 68.9019C88.9067 68.7 88.8384 68.4071 88.8384 68.0229V67.708C88.8416 67.3288 88.9149 67.0415 89.0581 66.8462C89.203 66.6493 89.4097 66.5508 89.6782 66.5508C89.9093 66.5508 90.0843 66.6077 90.2031 66.7217C90.3236 66.834 90.3984 67.0179 90.4277 67.2734H91.043C91.0039 66.8844 90.8647 66.5833 90.6255 66.3701C90.3862 66.1569 90.0705 66.0503 89.6782 66.0503C89.3869 66.0503 89.1297 66.1195 88.9067 66.2578C88.6854 66.3962 88.5153 66.5931 88.3965 66.8486C88.2777 67.1042 88.2183 67.3996 88.2183 67.7349V68.0669C88.2231 68.394 88.2842 68.6813 88.4014 68.9287C88.5186 69.1761 88.6846 69.3674 88.8994 69.5024C89.1159 69.6359 89.3657 69.7026 89.6489 69.7026C90.0542 69.7026 90.3789 69.5968 90.623 69.3853ZM94.2534 68.8872C94.3739 68.6235 94.4341 68.3175 94.4341 67.9692V67.7715C94.4325 67.4248 94.3706 67.1213 94.2485 66.8608C94.1265 66.5988 93.9531 66.3986 93.7285 66.2603C93.5055 66.1203 93.2492 66.0503 92.9595 66.0503C92.6698 66.0503 92.4126 66.1211 92.188 66.2627C91.965 66.4027 91.7917 66.6053 91.668 66.8706C91.5459 67.1359 91.4849 67.4419 91.4849 67.7886V67.9888C91.4865 68.3289 91.5483 68.6292 91.6704 68.8896C91.7941 69.1501 91.9683 69.3511 92.1929 69.4927C92.4191 69.6326 92.6763 69.7026 92.9644 69.7026C93.2557 69.7026 93.5129 69.6326 93.7358 69.4927C93.9604 69.3511 94.133 69.1493 94.2534 68.8872ZM93.5918 66.8779C93.7415 67.0879 93.8164 67.3898 93.8164 67.7837V67.9692C93.8164 68.3696 93.7423 68.674 93.5942 68.8823C93.4478 69.0907 93.2378 69.1948 92.9644 69.1948C92.6942 69.1948 92.4826 69.0882 92.3296 68.875C92.1782 68.6618 92.1025 68.3599 92.1025 67.9692V67.7642C92.1058 67.3817 92.1823 67.0863 92.332 66.8779C92.4834 66.668 92.6925 66.563 92.9595 66.563C93.2329 66.563 93.4437 66.668 93.5918 66.8779Z" fill="#AFB1B8"/>
</g>
<defs>
<filter id="filter0_dd" x="0" y="0" width="178" height="100" filterUnits="userSpaceOnUse" color-interpolation-filters="sRGB">
<feFlood flood-opacity="0" result="BackgroundImageFix"/>
<feColorMatrix in="SourceAlpha" type="matrix" values="0 0 0 0 0 0 0 0 0 0 0 0 0 0 0 0 0 0 127 0"/>
<feOffset dy="4"/>
<feGaussianBlur stdDeviation="2"/>
<feColorMatrix type="matrix" values="0 0 0 0 0 0 0 0 0 0 0 0 0 0 0 0 0 0 0.25 0"/>
<feBlend mode="normal" in2="BackgroundImageFix" result="effect1_dropShadow"/>
<feColorMatrix in="SourceAlpha" type="matrix" values="0 0 0 0 0 0 0 0 0 0 0 0 0 0 0 0 0 0 127 0"/>
<feOffset dy="4"/>
<feGaussianBlur stdDeviation="2"/>
<feColorMatrix type="matrix" values="0 0 0 0 0 0 0 0 0 0 0 0 0 0 0 0 0 0 0.25 0"/>
<feBlend mode="normal" in2="effect1_dropShadow" result="effect2_dropShadow"/>
<feBlend mode="normal" in="SourceGraphic" in2="effect2_dropShadow" result="shape"/>
</filter>
</defs>
</svg>
